<?xml version="1.0" encoding="utf-8"?>
<!-- Generator: Adobe Illustrator 19.2.1, SVG Export Plug-In . SVG Version: 6.00 Build 0)  -->
<svg version="1.1" id="Layer_1" xmlns="http://www.w3.org/2000/svg" xmlns:xlink="http://www.w3.org/1999/xlink" x="0px" y="0px"
	 viewBox="0 0 283.5 141.7" style="enable-background:new 0 0 283.5 141.7;" xml:space="preserve">
<style type="text/css">
	.st0{fill:#65449B;}
	.st1{fill:#FFFFFF;stroke:#A7A9AC;stroke-width:0.8406;stroke-miterlimit:10;}
</style>
<path class="st0" d="M139.7,102.6h-1c-5.2,0-9.4-4.2-9.4-9.4V50.6c0-5.2,4.2-9.4,9.4-9.4h1c5.2,0,9.4,4.2,9.4,9.4v42.6
	C149.1,98.4,144.9,102.6,139.7,102.6z"/>
<path class="st1" d="M152.5,54.7c0,7.3-6,13.3-13.3,13.3s-13.3-6-13.3-13.3s6-13.3,13.3-13.3S152.5,47.4,152.5,54.7z"/>
<path d="M39.1,68.1c-1-2.1-3.1-3.7-5.5-3.7c-2.3,0-4.5,1.8-4.5,4.2c0,3.7,4.9,5.4,10,7.7c5,2.3,9.9,5.4,9.9,12.2
	c0,8.1-6.8,14.2-14.7,14.2c-6.2,0-12.5-3.6-14.8-9.6l7-3.2c1.7,3.2,3.8,5.5,7.8,5.5c3.5,0,6.5-2.4,6.5-6c0-2.3-1.1-3.4-3-4.7
	l-8.1-4.3c-4.8-2.6-8.2-4.9-8.2-10.8c0-7,5.7-12.4,12.6-12.4c5.2,0,9.4,2.8,11.7,7.5L39.1,68.1z"/>
<path d="M71.7,85.6l12.6-29.6l12.5,29.6l12.4-27.3h9.3l-21.8,44.3L84.3,74l-12.6,28.6L49.9,58.3h9.3L71.7,85.6z"/>
<path d="M172.5,101.1h-8.2V66h-4.5v-7.7h4.5V41.9h8.2v16.4h8.1V66h-8.1V101.1z"/>
<path d="M218.6,70.5c-3.3-3.8-7.3-5.8-12.3-5.8c-8,0-14.3,7.1-14.3,15c0,8.8,6.1,15.2,14.8,15.2c4.8,0,8.6-2.2,11.7-5.7v10.5
	c-3.7,2-7.5,2.8-11.8,2.8c-12.6,0-23-9.7-23-22.5c0-13.3,10.2-23.1,23.4-23.1c3.8,0,8.1,0.9,11.3,2.8V70.5z"/>
<path d="M235.7,21.7v42.4h0.2c2.6-4.6,7.7-7,12.9-7c12.1,0,15.2,8.1,15.2,18.6v25.5h-8.2V76.6c0-7.3-1-12.3-9.4-12.3
	c-10.6,0-10.6,9.3-10.6,17.1v19.7h-8.2V21.7H235.7z"/>
</svg>
