<?xml version="1.0" encoding="utf-8"?>
<!-- Generator: Adobe Illustrator 19.0.0, SVG Export Plug-In . SVG Version: 6.00 Build 0)  -->
<svg version="1.1" id="Layer_1" xmlns="http://www.w3.org/2000/svg" xmlns:xlink="http://www.w3.org/1999/xlink" x="0px" y="0px"
	 viewBox="0 0 500 500" style="enable-background:new 0 0 500 500;" xml:space="preserve">
<style type="text/css">
	.st0{fill:#FAFBFB;}
</style>
<circle id="XMLID_1_" class="st0" cx="250" cy="250" r="186.3"/>
<g id="XMLID_3_">
	<path id="XMLID_4_" d="M131.4,272.4v-58.3h15.8v45.6h22.5v12.7H131.4z"/>
	<path id="XMLID_6_" d="M233.5,243.1c0,9.8-2.4,17.3-7.2,22.4c-4.8,5.1-11.9,7.7-21.1,7.7c-9.1,0-16.2-2.6-21-7.7
		c-4.9-5.1-7.3-12.6-7.3-22.4c0-9.7,2.4-17.1,7.3-22.2c4.9-5.1,11.9-7.7,21.2-7.7c9.3,0,16.3,2.5,21.1,7.6
		C231.1,225.9,233.5,233.3,233.5,243.1z M193.3,243.1c0,11.3,3.9,16.9,11.8,16.9c4,0,6.9-1.4,8.9-4.1c1.9-2.7,2.9-7,2.9-12.8
		c0-5.8-1-10.1-2.9-12.9c-2-2.8-4.9-4.2-8.8-4.2C197.3,226.1,193.3,231.8,193.3,243.1z"/>
	<path id="XMLID_9_" d="M267.4,238.2h25.2v31.4c-6.8,2.3-14.3,3.5-22.5,3.5c-9,0-15.9-2.6-20.8-7.8s-7.4-12.6-7.4-22.3
		c0-9.4,2.7-16.7,8.1-22c5.4-5.2,12.9-7.9,22.6-7.9c3.7,0,7.1,0.3,10.4,1c3.3,0.7,6.1,1.6,8.5,2.6l-5,12.4
		c-4.2-2.1-8.8-3.1-13.8-3.1c-4.6,0-8.2,1.5-10.7,4.5c-2.5,3-3.8,7.3-3.8,12.8c0,5.5,1.1,9.6,3.4,12.5c2.3,2.9,5.6,4.3,9.8,4.3
		c2.3,0,4.5-0.2,6.5-0.7v-9.1h-10.4V238.2z"/>
	<path id="XMLID_11_" d="M359,243.1c0,9.8-2.4,17.3-7.2,22.4s-11.9,7.7-21.1,7.7c-9.1,0-16.2-2.6-21-7.7c-4.9-5.1-7.3-12.6-7.3-22.4
		c0-9.7,2.4-17.1,7.3-22.2c4.9-5.1,11.9-7.7,21.2-7.7c9.3,0,16.3,2.5,21.1,7.6C356.6,225.9,359,233.3,359,243.1z M318.9,243.1
		c0,11.3,3.9,16.9,11.8,16.9c4,0,6.9-1.4,8.9-4.1c1.9-2.7,2.9-7,2.9-12.8c0-5.8-1-10.1-2.9-12.9c-2-2.8-4.9-4.2-8.8-4.2
		C322.8,226.1,318.9,231.8,318.9,243.1z"/>
</g>
</svg>
